<svg width="134" height="134" viewBox="0 0 134 134" fill="none" xmlns="http://www.w3.org/2000/svg">
<path d="M122.833 87.6585C122.833 87.6027 122.778 87.5467 122.722 87.4908C122.498 87.1558 122.219 86.8209 121.94 86.5417C121.884 86.4859 121.828 86.3744 121.773 86.3185C117.25 81.2935 110.606 78.1667 103.292 78.1667C96.2568 78.1667 89.8359 81.07 85.2576 85.76C80.8468 90.2825 78.1667 96.4801 78.1667 103.292C78.1667 107.982 79.5067 112.448 81.7959 116.245C83.0242 118.311 84.5876 120.209 86.3743 121.773C86.4859 121.828 86.5417 121.884 86.5976 121.94C86.8767 122.219 87.1559 122.442 87.4909 122.722C87.4909 122.722 87.4909 122.722 87.5467 122.722C87.6025 122.777 87.6585 122.833 87.7143 122.833C91.9018 126.351 97.3176 128.417 103.292 128.417C112.448 128.417 120.433 123.503 124.788 116.245C126.072 114.068 127.077 111.667 127.691 109.154C128.193 107.256 128.417 105.302 128.417 103.292C128.417 97.3734 126.351 91.9018 122.833 87.6585ZM112.672 107.367H107.479V112.783C107.479 115.073 105.581 116.971 103.292 116.971C101.003 116.971 99.1043 115.073 99.1043 112.783V107.367H93.9118C91.6226 107.367 89.7243 105.469 89.7243 103.18C89.7243 100.891 91.6226 98.9925 93.9118 98.9925H99.1043V94.0236C99.1043 91.7344 101.003 89.8361 103.292 89.8361C105.581 89.8361 107.479 91.7344 107.479 94.0236V98.9925H112.672C114.961 98.9925 116.859 100.891 116.859 103.18C116.859 105.469 115.017 107.367 112.672 107.367Z" fill="#191919"/>
<path opacity="0.4" d="M108.037 31.6015L72.9183 12.6742C69.2333 10.6642 64.7666 10.6642 61.0257 12.6742L25.9066 31.6015C23.3383 32.9973 21.7749 35.7333 21.7749 38.7483C21.7749 41.7633 23.3383 44.499 25.9066 45.8948L61.0257 64.8224C62.8682 65.8274 64.9341 66.33 66.9441 66.33C68.9541 66.33 71.02 65.8274 72.8625 64.8224L107.982 45.8948C110.55 44.499 112.113 41.7633 112.113 38.7483C112.225 35.7333 110.606 32.9973 108.037 31.6015Z" fill="#191919"/>
<path opacity="0.4" d="M55.2751 71.4108L22.6126 55.0517C20.1001 53.7675 17.1967 53.935 14.7959 55.3866C12.3951 56.8383 10.9993 59.4068 10.9993 62.1985V93.0741C10.9993 98.4341 13.9584 103.236 18.7601 105.637L51.4226 121.94C52.5393 122.499 53.7676 122.778 54.996 122.778C56.4476 122.778 57.8993 122.387 59.1835 121.549C61.5843 120.098 62.9801 117.529 62.9801 114.737V83.8618C63.0359 78.6135 60.0767 73.8116 55.2751 71.4108Z" fill="#191919"/>
<path opacity="0.4" d="M123.001 62.2543V87.8817C122.945 87.8258 122.889 87.7143 122.833 87.6584C122.833 87.6026 122.777 87.5466 122.722 87.4908C122.498 87.1558 122.219 86.8209 121.94 86.5417C121.884 86.4859 121.828 86.3743 121.772 86.3185C117.25 81.2935 110.606 78.1667 103.292 78.1667C96.2566 78.1667 89.8358 81.07 85.2574 85.76C80.8466 90.2825 78.1666 96.48 78.1666 103.292C78.1666 107.982 79.5065 112.448 81.7957 116.245C82.7449 117.864 83.9174 119.316 85.2015 120.656L82.5774 121.996C81.4607 122.554 80.2324 122.833 79.004 122.833C77.5524 122.833 76.1007 122.443 74.7607 121.605C72.4157 120.154 70.9641 117.585 70.9641 114.793V83.9733C70.9641 78.6133 73.9233 73.8116 78.7249 71.4108L111.387 55.1075C113.9 53.8233 116.803 53.935 119.204 55.4425C121.549 56.8942 123.001 59.4627 123.001 62.2543Z" fill="#191919"/>
</svg>
