<svg width="66" height="66" viewBox="0 0 66 66" fill="none" xmlns="http://www.w3.org/2000/svg">
<path d="M55 33.55V38.2251C55 46.8876 50.05 50.6001 42.625 50.6001H17.875C10.45 50.6001 5.5 46.8876 5.5 38.2251V23.375C5.5 14.7125 10.45 11 17.875 11H25.3C24.9425 12.045 24.75 13.2 24.75 14.4375V25.1626C24.75 27.8301 25.63 30.085 27.1975 31.6525C28.765 33.22 31.02 34.1001 33.6875 34.1001V37.9224C33.6875 39.3249 35.2825 40.1775 36.465 39.4075L44.4125 34.1001H51.5625C52.8 34.1001 53.955 33.9075 55 33.55Z" fill="#FFDB0D"/>
<path opacity="0.4" d="M60.5 14.4375V25.1626C60.5 29.2601 58.41 32.34 55 33.55C53.955 33.9075 52.8 34.1001 51.5625 34.1001H44.4125L36.465 39.4075C35.2825 40.1775 33.6875 39.3249 33.6875 37.9224V34.1001C31.02 34.1001 28.765 33.22 27.1975 31.6525C25.63 30.085 24.75 27.8301 24.75 25.1626V14.4375C24.75 13.2 24.9425 12.045 25.3 11C26.51 7.59 29.59 5.5 33.6875 5.5H51.5625C56.925 5.5 60.5 9.075 60.5 14.4375Z" fill="#FFDB0D"/>
<path opacity="0.4" d="M40.1501 58.4375H32.3126V50.6001C32.3126 49.4726 31.3776 48.5376 30.2501 48.5376C29.1226 48.5376 28.1876 49.4726 28.1876 50.6001V58.4375H20.3501C19.2226 58.4375 18.2876 59.3725 18.2876 60.5C18.2876 61.6275 19.2226 62.5625 20.3501 62.5625H40.1501C41.2776 62.5625 42.2126 61.6275 42.2126 60.5C42.2126 59.3725 41.2776 58.4375 40.1501 58.4375Z" fill="#FFDB0D"/>
<path d="M42.46 22C41.305 22 40.3975 21.065 40.3975 19.9375C40.3975 18.81 41.3325 17.875 42.46 17.875C43.5875 17.875 44.5225 18.81 44.5225 19.9375C44.5225 21.065 43.5875 22 42.46 22Z" fill="#FFDB0D"/>
<path d="M50.1875 22C49.0325 22 48.125 21.065 48.125 19.9375C48.125 18.81 49.06 17.875 50.1875 17.875C51.315 17.875 52.25 18.81 52.25 19.9375C52.25 21.065 51.315 22 50.1875 22Z" fill="#FFDB0D"/>
<path d="M34.7051 22C33.5501 22 32.6426 21.065 32.6426 19.9375C32.6426 18.81 33.5776 17.875 34.7051 17.875C35.8326 17.875 36.7676 18.81 36.7676 19.9375C36.7676 21.065 35.8601 22 34.7051 22Z" fill="#FFDB0D"/>
</svg>
