<svg width="66" height="66" viewBox="0 0 66 66" fill="none" xmlns="http://www.w3.org/2000/svg">
<path opacity="0.4" d="M57.9974 59.125C57.9974 59.895 57.3924 60.5 56.6224 60.5H9.37744C8.60744 60.5 8.00244 59.895 8.00244 59.125C8.00244 47.74 19.2224 38.5 32.9999 38.5C35.8324 38.5 38.5825 38.8849 41.1125 39.6274C39.49 41.5524 38.4999 44.055 38.4999 46.75C38.4999 48.8125 39.0774 50.765 40.0949 52.415C40.6449 53.35 41.3599 54.2024 42.1849 54.9174C44.1099 56.6774 46.6674 57.75 49.4999 57.75C52.5799 57.75 55.3574 56.485 57.3374 54.45C57.7774 55.935 57.9974 57.5025 57.9974 59.125Z" fill="#FFDB0D"/>
<path d="M57.6675 39.4075C55.6875 37.1525 52.745 35.75 49.5 35.75C46.42 35.75 43.615 37.0151 41.6075 39.0776C39.6825 41.0576 38.5 43.78 38.5 46.75C38.5 48.8125 39.0775 50.765 40.095 52.415C40.645 53.35 41.36 54.2024 42.185 54.9174C44.11 56.6774 46.6675 57.75 49.5 57.75C53.515 57.75 57.0075 55.605 58.905 52.415C59.4825 51.48 59.9225 50.4075 60.17 49.3075C60.39 48.4825 60.5 47.63 60.5 46.75C60.5 43.945 59.4275 41.36 57.6675 39.4075ZM53.625 48.7574H51.5625V50.9025C51.5625 52.03 50.6275 52.965 49.5 52.965C48.3725 52.965 47.4375 52.03 47.4375 50.9025V48.7574H45.375C44.2475 48.7574 43.3125 47.8224 43.3125 46.6949C43.3125 45.5674 44.2475 44.6324 45.375 44.6324H47.4375V42.6801C47.4375 41.5526 48.3725 40.6176 49.5 40.6176C50.6275 40.6176 51.5625 41.5526 51.5625 42.6801V44.6324H53.625C54.7525 44.6324 55.6875 45.5674 55.6875 46.6949C55.6875 47.8224 54.7525 48.7574 53.625 48.7574Z" fill="#FFDB0D"/>
<path d="M33 33C40.5939 33 46.75 26.8439 46.75 19.25C46.75 11.6561 40.5939 5.5 33 5.5C25.4061 5.5 19.25 11.6561 19.25 19.25C19.25 26.8439 25.4061 33 33 33Z" fill="#FFDB0D"/>
</svg>
