<svg width="66" height="66" viewBox="0 0 66 66" fill="none" xmlns="http://www.w3.org/2000/svg">
<path d="M56.375 28.0225H48.4275C41.91 28.0225 36.6025 22.715 36.6025 16.1975V8.25C36.6025 6.7375 35.365 5.5 33.8525 5.5H22.1925C13.7225 5.5 6.875 11 6.875 20.8175V45.1825C6.875 55 13.7225 60.5 22.1925 60.5H43.8075C52.2775 60.5 59.125 55 59.125 45.1825V30.7725C59.125 29.26 57.8875 28.0225 56.375 28.0225ZM31.7075 37.2075C31.295 37.62 30.7725 37.8125 30.25 37.8125C29.7275 37.8125 29.205 37.62 28.7925 37.2075L26.8125 35.2275V46.75C26.8125 47.8775 25.8775 48.8125 24.75 48.8125C23.6225 48.8125 22.6875 47.8775 22.6875 46.75V35.2275L20.7075 37.2075C19.91 38.005 18.59 38.005 17.7925 37.2075C16.995 36.41 16.995 35.09 17.7925 34.2925L23.2925 28.7925C23.485 28.6275 23.6775 28.49 23.8975 28.38C23.9525 28.3525 24.035 28.325 24.09 28.2975C24.255 28.2425 24.42 28.215 24.6125 28.1875C24.695 28.1875 24.75 28.1875 24.8325 28.1875C25.0525 28.1875 25.2725 28.2425 25.4925 28.325C25.52 28.325 25.52 28.325 25.5475 28.325C25.7675 28.4075 25.9875 28.5725 26.1525 28.7375C26.18 28.765 26.2075 28.765 26.2075 28.7925L31.7075 34.2925C32.505 35.09 32.505 36.41 31.7075 37.2075Z" fill="#FFDB0D"/>
<path d="M47.9326 24.2276C50.5451 24.2551 54.1751 24.2551 57.2826 24.2551C58.8501 24.2551 59.6751 22.4126 58.5751 21.3126C54.6151 17.3251 47.5201 10.1476 43.4501 6.0776C42.3226 4.9501 40.3701 5.7201 40.3701 7.2876V16.8851C40.3701 20.9001 43.7801 24.2276 47.9326 24.2276Z" fill="#FFDB0D"/>
</svg>
