<svg width="66" height="66" viewBox="0 0 66 66" fill="none" xmlns="http://www.w3.org/2000/svg">
<path opacity="0.4" d="M59.785 25.96H5.5V17.655C5.5 10.945 10.945 5.5 17.655 5.5H24.0625C28.545 5.5 29.9475 6.9575 31.735 9.35L35.585 14.465C36.4375 15.5925 36.5475 15.7575 38.1425 15.7575H45.815C52.3325 15.73 57.8875 20.02 59.785 25.96Z" fill="#FFDB0D"/>
<path d="M60.4725 29.81C60.4175 28.4625 60.1975 27.1975 59.785 25.96H5.5V45.7875C5.5 53.9 12.1 60.5 20.2125 60.5H45.7875C53.9 60.5 60.5 53.9 60.5 45.7875V30.4425C60.5 30.25 60.5 30.0025 60.4725 29.81ZM39.875 44.6875H35.2275V49.5C35.2275 50.6275 34.2925 51.5625 33.165 51.5625C32.0375 51.5625 31.1025 50.6275 31.1025 49.5V44.6875H26.125C24.9975 44.6875 24.0625 43.7525 24.0625 42.625C24.0625 41.4975 24.9975 40.5625 26.125 40.5625H31.1025V35.75C31.1025 34.6225 32.0375 33.6875 33.165 33.6875C34.2925 33.6875 35.2275 34.6225 35.2275 35.75V40.5625H39.875C41.0025 40.5625 41.9375 41.4975 41.9375 42.625C41.9375 43.7525 41.0025 44.6875 39.875 44.6875Z" fill="#FFDB0D"/>
</svg>
