<svg width="66" height="66" viewBox="0 0 66 66" fill="none" xmlns="http://www.w3.org/2000/svg">
<path opacity="0.4" d="M38.1975 7.9199L25.3 5.8849C14.5475 4.2074 9.56998 7.8374 7.86498 18.5899L5.82998 31.4874C4.72998 38.5274 5.88498 43.0924 9.87248 45.8699C11.9625 47.3549 14.8225 48.3449 18.535 48.9224L31.4325 50.9574C42.185 52.6349 47.1625 49.0049 48.8675 38.2524L50.875 25.3549C51.205 23.2374 51.3425 21.3399 51.2325 19.6624C50.875 12.7874 46.8325 9.2674 38.1975 7.9199ZM22.66 25.7124C19.4425 25.7124 16.83 23.0999 16.83 19.9099C16.83 16.6924 19.4425 14.0799 22.66 14.0799C25.85 14.0799 28.4625 16.6924 28.4625 19.9099C28.4625 23.0999 25.85 25.7124 22.66 25.7124Z" fill="#FFDB0D"/>
<path d="M56.3751 37.0426L52.2501 49.4451C48.8126 59.7851 43.3126 62.5351 32.9726 59.0976L20.5701 54.9726C14.3276 52.9101 10.8626 50.0501 9.87256 45.8701C11.9626 47.3551 14.8226 48.3451 18.5351 48.9226L31.4326 50.9576C42.1851 52.6351 47.1626 49.0051 48.8676 38.2526L50.8751 25.3551C51.2051 23.2376 51.3426 21.3401 51.2326 19.6626C57.8051 23.1551 59.2351 28.4351 56.3751 37.0426Z" fill="#FFDB0D"/>
<path d="M28.4626 19.9101C28.4626 23.1001 25.8501 25.7126 22.6601 25.7126C19.4426 25.7126 16.8301 23.1001 16.8301 19.9101C16.8301 16.6926 19.4426 14.0801 22.6601 14.0801C25.8501 14.0801 28.4626 16.6926 28.4626 19.9101Z" fill="#FFDB0D"/>
</svg>
