<svg width="240" height="240" viewBox="0 0 240 240" fill="none" xmlns="http://www.w3.org/2000/svg">
<path d="M187.5 139H166.304C166.106 139 165.912 139.059 165.748 139.169L140.9 155.8C137.3 158.2 133.1 159.3 129 159.3C125.5 159.3 122 158.5 118.8 156.7C112.02 153.116 107.773 145.311 107.513 137.646C107.498 137.204 107.209 136.815 106.787 136.682C99.6757 134.453 93.3323 130.732 88.3 125.7C79.7 117.1 75 105 75 91.5V52.5V41C75 40.4477 74.5523 40 74 40H65C38 40 20 53.5 20 85V139C20 170.5 38 184 65 184H102.5V212.5H74C69.9 212.5 66.5 215.9 66.5 220C66.5 224.1 69.9 227.5 74 227.5H146C150.1 227.5 153.5 224.1 153.5 220C153.5 215.9 150.1 212.5 146 212.5H117.5V184H155C181.709 184 199.611 170.789 199.994 140.012C200.001 139.459 199.552 139 199 139H187.5Z" fill="white"/>
<path d="M187.5 20H122.5C107.6 20 96.4 27.6 92 40C90.7 43.8 90 48 90 52.5V91.5C90 101.2 93.2 109.4 98.9 115.1C104.6 120.8 112.8 124 122.5 124V137.9C122.5 143 128.3 146.1 132.6 143.3L161.5 124H187.5C192 124 196.2 123.3 200 122C212.4 117.6 220 106.4 220 91.5V52.5C220 33 207 20 187.5 20ZM126.2 80C122 80 118.7 76.6 118.7 72.5C118.7 68.4 122 65 126.2 65C130.4 65 133.7 68.4 133.7 72.5C133.7 76.6 130.4 80 126.2 80ZM154.4 80C150.2 80 146.9 76.6 146.9 72.5C146.9 68.4 150.3 65 154.4 65C158.5 65 161.9 68.4 161.9 72.5C161.9 76.6 158.5 80 154.4 80ZM182.5 80C178.3 80 175 76.6 175 72.5C175 68.4 178.4 65 182.5 65C186.6 65 190 68.4 190 72.5C190 76.6 186.6 80 182.5 80Z" fill="white"/>
<path d="M220 52.5V91.5C220 106.4 212.4 117.6 200 122C196.2 123.3 192 124 187.5 124H161.5L132.6 143.3C128.3 146.1 122.5 143 122.5 137.9V124C112.8 124 104.6 120.8 98.9 115.1C93.2 109.4 90 101.2 90 91.5V52.5C90 48 90.7 43.8 92 40C96.4 27.6 107.6 20 122.5 20H187.5C207 20 220 33 220 52.5Z" fill="white"/>
</svg>
