<svg width="230" height="230" viewBox="0 0 230 230" fill="none" xmlns="http://www.w3.org/2000/svg">
<path d="M121.71 161.767H128.418C139.439 161.767 148.447 152.758 148.447 141.737V135.029H121.71V161.767Z" fill="white"/>
<path d="M81.5518 141.737C81.5518 152.758 90.5601 161.767 101.581 161.767H108.289V135.029H81.5518V141.737Z" fill="white"/>
<path d="M81.5518 115V121.708H108.289V94.9709H101.581C90.5601 94.9709 81.5518 103.979 81.5518 115Z" fill="white"/>
<path d="M191.954 65.3583L136.85 26.7375C121.804 16.1958 98.804 16.7708 84.3332 27.9833L36.3207 65.4541C26.6415 72.9291 19.1665 88.2625 19.1665 100.337V166.462C19.1665 190.9 39.004 210.833 63.3457 210.833H166.558C190.9 210.833 210.737 190.996 210.737 166.558V101.583C210.833 88.6458 202.496 72.7375 191.954 65.3583ZM161.766 141.737C161.766 160.137 146.721 175.183 128.321 175.183H101.583C83.1832 175.183 68.1373 160.233 68.1373 141.737V115C68.1373 96.6 83.1832 81.5541 101.583 81.5541H128.321C146.721 81.5541 161.766 96.5041 161.766 115V141.737V141.737Z" fill="white"/>
<path d="M128.418 94.9709H121.71V121.708H148.447V115C148.447 103.979 139.439 94.9709 128.418 94.9709Z" fill="white"/>
</svg>
