<svg width="64" height="66" viewBox="0 0 64 66" fill="none" xmlns="http://www.w3.org/2000/svg">
<path d="M53.44 18.7549L38.08 7.67239C33.8933 4.64739 27.4666 4.81239 23.44 8.02989L10.08 18.7824C7.41331 20.9274 5.30664 25.3274 5.30664 28.7924V47.7674C5.30664 54.7799 10.8266 60.4999 17.6266 60.4999H46.3733C53.1733 60.4999 58.6933 54.8074 58.6933 47.7949V29.1499C58.6933 25.4374 56.3733 20.8724 53.44 18.7549ZM34 49.4999C34 50.6274 33.0933 51.5624 32 51.5624C30.9066 51.5624 30 50.6274 30 49.4999V41.2499C30 40.1224 30.9066 39.1874 32 39.1874C33.0933 39.1874 34 40.1224 34 41.2499V49.4999Z" fill="#FFDB0D"/>
</svg>
