<svg width="66" height="66" viewBox="0 0 66 66" fill="none" xmlns="http://www.w3.org/2000/svg">
<path d="M44.5225 5.5H21.4775C11.4675 5.5 5.5 11.4675 5.5 21.4775V44.495C5.5 54.5325 11.4675 60.5 21.4775 60.5H44.495C54.505 60.5 60.4725 54.5325 60.4725 44.5225V21.4775C60.5 11.4675 54.5325 5.5 44.5225 5.5ZM21.0925 15.125C21.0925 13.9975 22.0275 13.0625 23.155 13.0625C24.2825 13.0625 25.2175 13.9975 25.2175 15.125V25.85C25.2175 26.9775 24.2825 27.9125 23.155 27.9125C22.0275 27.9125 21.0925 26.9775 21.0925 25.85V15.125ZM25.5759 45.4266C25.3654 45.499 25.2175 45.6932 25.2175 45.9158V50.875C25.2175 52.0025 24.2825 52.9375 23.155 52.9375C22.0275 52.9375 21.0925 52.0025 21.0925 50.875V45.9158C21.0925 45.6932 20.9446 45.499 20.7341 45.4265C17.7851 44.4114 15.675 41.6412 15.675 38.3625C15.675 34.2375 19.03 30.855 23.155 30.855C27.28 30.855 30.6625 34.21 30.6625 38.3625C30.6625 41.6412 28.527 44.4114 25.5759 45.4266ZM44.9075 50.875C44.9075 52.0025 43.9725 52.9375 42.845 52.9375C41.7175 52.9375 40.7825 52.0025 40.7825 50.875V40.15C40.7825 39.0225 41.7175 38.0875 42.845 38.0875C43.9725 38.0875 44.9075 39.0225 44.9075 40.15V50.875ZM42.845 35.1175C38.72 35.1175 35.3375 31.7625 35.3375 27.61C35.3375 24.3313 37.473 21.5611 40.4241 20.5459C40.6346 20.4735 40.7825 20.2793 40.7825 20.0567V15.125C40.7825 13.9975 41.7175 13.0625 42.845 13.0625C43.9725 13.0625 44.9075 13.9975 44.9075 15.125V20.0842C44.9075 20.3068 45.0554 20.501 45.2659 20.5735C48.2149 21.5886 50.325 24.3588 50.325 27.6375C50.325 31.7625 46.97 35.1175 42.845 35.1175Z" fill="#FFDB0D"/>
</svg>
