<svg width="230" height="230" viewBox="0 0 230 230" fill="none" xmlns="http://www.w3.org/2000/svg">
<path d="M172.5 19.1667H57.5C41.5917 19.1667 28.75 31.9125 28.75 47.6292V152.183C28.75 167.9 41.5917 180.742 57.5 180.742H64.7833C72.3542 180.742 79.7333 183.713 85.1 189.079L101.487 205.275C108.962 212.654 121.037 212.654 128.512 205.275L144.9 189.079C150.267 183.713 157.646 180.742 165.217 180.742H172.5C188.408 180.742 201.25 167.9 201.25 152.183V47.6292C201.25 31.9125 188.408 19.1667 172.5 19.1667ZM115 53.1875C125.35 53.1875 133.687 61.6209 133.687 71.875C133.687 82.0334 125.637 90.1792 115.671 90.5625C115.287 90.5625 114.712 90.5625 114.233 90.5625C104.171 90.1792 96.2167 82.0334 96.2167 71.875C96.3125 61.6209 104.65 53.1875 115 53.1875ZM141.354 140.779C126.883 150.458 103.117 150.458 88.6458 140.779C75.9 132.346 75.9 118.354 88.6458 109.825C103.212 100.146 126.979 100.146 141.354 109.825C154.1 118.354 154.1 132.25 141.354 140.779Z" fill="white"/>
</svg>
